<svg xmlns="http://www.w3.org/2000/svg" xmlns:xlink="http://www.w3.org/1999/xlink" width="500" zoomAndPan="magnify" viewBox="0 0 375 374.999991" height="500" preserveAspectRatio="xMidYMid meet" version="1.0"><defs><g/><clipPath id="3815546062"><path d="M 74.09375 154.789062 L 155.09375 154.789062 L 155.09375 235.789062 L 74.09375 235.789062 Z M 74.09375 154.789062 " clip-rule="nonzero"/></clipPath><clipPath id="4140d93f89"><path d="M 114.59375 154.789062 C 92.226562 154.789062 74.09375 172.921875 74.09375 195.289062 C 74.09375 217.65625 92.226562 235.789062 114.59375 235.789062 C 136.960938 235.789062 155.09375 217.65625 155.09375 195.289062 C 155.09375 172.921875 136.960938 154.789062 114.59375 154.789062 Z M 114.59375 154.789062 " clip-rule="nonzero"/></clipPath><clipPath id="0e18362dc4"><path d="M 71.527344 157.316406 L 152.53125 157.316406 L 152.53125 238.316406 L 71.527344 238.316406 Z M 71.527344 157.316406 " clip-rule="nonzero"/></clipPath><clipPath id="eb5dd393f6"><path d="M 112.027344 157.316406 C 89.660156 157.316406 71.527344 175.449219 71.527344 197.816406 C 71.527344 220.183594 89.660156 238.316406 112.027344 238.316406 C 134.398438 238.316406 152.53125 220.183594 152.53125 197.816406 C 152.53125 175.449219 134.398438 157.316406 112.027344 157.316406 Z M 112.027344 157.316406 " clip-rule="nonzero"/></clipPath><clipPath id="d1f83824fd"><path d="M 92 166.511719 L 140.917969 166.511719 L 140.917969 224.523438 L 92 224.523438 Z M 92 166.511719 " clip-rule="nonzero"/></clipPath><clipPath id="4bae0b8f56"><path d="M 43.070312 187 L 49 187 L 49 192 L 43.070312 192 Z M 43.070312 187 " clip-rule="nonzero"/></clipPath><clipPath id="483ede8030"><path d="M 43.070312 201 L 48 201 L 48 206 L 43.070312 206 Z M 43.070312 201 " clip-rule="nonzero"/></clipPath><clipPath id="6baea8084c"><path d="M 117 206 L 121 206 L 121 227.816406 L 117 227.816406 Z M 117 206 " clip-rule="nonzero"/></clipPath><clipPath id="35752a5e14"><path d="M 119 210 L 124 210 L 124 227.816406 L 119 227.816406 Z M 119 210 " clip-rule="nonzero"/></clipPath><clipPath id="a945edafdf"><path d="M 115 207 L 119 207 L 119 227.816406 L 115 227.816406 Z M 115 207 " clip-rule="nonzero"/></clipPath><clipPath id="b5a0fd8897"><path d="M 114 212 L 115 212 L 115 227.816406 L 114 227.816406 Z M 114 212 " clip-rule="nonzero"/></clipPath><clipPath id="6ac6b1c1d6"><path d="M 122 213 L 126 213 L 126 227.816406 L 122 227.816406 Z M 122 213 " clip-rule="nonzero"/></clipPath><clipPath id="deb8c8b130"><path d="M 121 224 L 122 224 L 122 227.816406 L 121 227.816406 Z M 121 224 " clip-rule="nonzero"/></clipPath><clipPath id="f5733d2c81"><path d="M 118 219 L 121 219 L 121 227.816406 L 118 227.816406 Z M 118 219 " clip-rule="nonzero"/></clipPath><clipPath id="9480ad5e57"><path d="M 110 213 L 114 213 L 114 227.816406 L 110 227.816406 Z M 110 213 " clip-rule="nonzero"/></clipPath><clipPath id="93874e0a69"><path d="M 111 219 L 113 219 L 113 227.816406 L 111 227.816406 Z M 111 219 " clip-rule="nonzero"/></clipPath><clipPath id="6cb95a815e"><path d="M 107.175781 216 L 111 216 L 111 227.816406 L 107.175781 227.816406 Z M 107.175781 216 " clip-rule="nonzero"/></clipPath><clipPath id="f15ec33591"><path d="M 119 204.75 L 122 204.75 L 122 207 L 119 207 Z M 119 204.75 " clip-rule="nonzero"/></clipPath><clipPath id="8bf31ee006"><path d="M 107.175781 215 L 110 215 L 110 218 L 107.175781 218 Z M 107.175781 215 " clip-rule="nonzero"/></clipPath><clipPath id="638a68e16c"><path d="M 118.761719 190 L 121 190 L 121 193 L 118.761719 193 Z M 118.761719 190 " clip-rule="nonzero"/></clipPath><clipPath id="44586094d3"><path d="M 128 202 L 131 202 L 131 204.253906 L 128 204.253906 Z M 128 202 " clip-rule="nonzero"/></clipPath><clipPath id="ca11199f60"><path d="M 125 186.78125 L 127 186.78125 L 127 189 L 125 189 Z M 125 186.78125 " clip-rule="nonzero"/></clipPath><clipPath id="ac5fe40307"><path d="M 104.308594 166 L 108 166 L 108 181 L 104.308594 181 Z M 104.308594 166 " clip-rule="nonzero"/></clipPath><clipPath id="3c070f3332"><path d="M 118 166 L 121.78125 166 L 121.78125 177 L 118 177 Z M 118 166 " clip-rule="nonzero"/></clipPath><clipPath id="2cf6f82acb"><path d="M 108 186 L 110 186 L 110 188.25 L 108 188.25 Z M 108 186 " clip-rule="nonzero"/></clipPath><clipPath id="8b4295cd3c"><path d="M 120 176 L 121.78125 176 L 121.78125 179 L 120 179 Z M 120 176 " clip-rule="nonzero"/></clipPath><clipPath id="f1b167bb91"><path d="M 104.308594 180 L 106 180 L 106 182 L 104.308594 182 Z M 104.308594 180 " clip-rule="nonzero"/></clipPath></defs><g clip-path="url(#3815546062)"><g clip-path="url(#4140d93f89)"><path fill="#000000" d="M 74.09375 154.789062 L 155.09375 154.789062 L 155.09375 235.789062 L 74.09375 235.789062 Z M 74.09375 154.789062 " fill-opacity="1" fill-rule="nonzero"/></g></g><g clip-path="url(#0e18362dc4)"><g clip-path="url(#eb5dd393f6)"><path fill="#ffffff" d="M 71.527344 157.316406 L 152.53125 157.316406 L 152.53125 238.316406 L 71.527344 238.316406 Z M 71.527344 157.316406 " fill-opacity="1" fill-rule="nonzero"/></g></g><g clip-path="url(#d1f83824fd)"><path fill="#1775bb" d="M 140.941406 197.511719 L 140.945312 201.101562 C 140.945312 202.433594 139.855469 203.523438 138.523438 203.523438 L 123.40625 203.53125 C 122.074219 203.53125 120.984375 204.613281 120.984375 205.949219 L 120.992188 221.699219 C 120.992188 223.027344 119.898438 224.113281 118.570312 224.113281 L 114.980469 224.113281 C 113.652344 224.113281 111.46875 224.121094 110.136719 224.121094 L 106.546875 224.121094 C 105.21875 224.121094 104.125 223.027344 104.125 221.699219 L 104.121094 205.953125 C 104.121094 204.621094 103.035156 203.53125 101.699219 203.53125 L 92.5625 203.535156 L 92.5625 202 L 96.957031 202 L 96.957031 198.234375 L 94.238281 198.234375 L 94.238281 193.84375 L 98.628906 193.84375 L 98.628906 189.765625 L 95.808594 189.765625 L 95.808594 186.671875 L 101.699219 186.664062 C 103.027344 186.664062 104.121094 185.582031 104.121094 184.25 L 104.113281 169.128906 C 104.113281 167.792969 105.199219 166.707031 106.535156 166.707031 L 110.125 166.707031 C 111.453125 166.707031 113.632812 166.707031 114.96875 166.703125 L 118.554688 166.703125 C 119.886719 166.703125 120.976562 167.792969 120.976562 169.125 L 120.976562 184.242188 C 120.976562 185.574219 122.070312 186.664062 123.398438 186.664062 L 138.519531 186.65625 C 139.855469 186.65625 140.941406 187.75 140.941406 189.078125 L 140.941406 192.667969 C 140.941406 194 140.941406 196.183594 140.941406 197.511719 Z M 140.941406 197.511719 " fill-opacity="1" fill-rule="nonzero"/></g><path fill="#1775bb" d="M 88.484375 193.84375 L 92.5625 193.84375 L 92.5625 197.921875 L 88.484375 197.921875 Z M 88.484375 193.84375 " fill-opacity="1" fill-rule="nonzero"/><path fill="#1775bb" d="M 88.484375 187.097656 L 92.5625 187.097656 L 92.5625 191.175781 L 88.484375 191.175781 Z M 88.484375 187.097656 " fill-opacity="1" fill-rule="nonzero"/><path fill="#1775bb" d="M 85.882812 203.175781 L 89.960938 203.175781 L 89.960938 207.253906 L 85.882812 207.253906 Z M 85.882812 203.175781 " fill-opacity="1" fill-rule="nonzero"/><path fill="#1775bb" d="M 81.804688 197.054688 L 85.882812 197.054688 L 85.882812 201.132812 L 81.804688 201.132812 Z M 81.804688 197.054688 " fill-opacity="1" fill-rule="nonzero"/><path fill="#1775bb" d="M 81.113281 189.765625 L 85.191406 189.765625 L 85.191406 193.84375 L 81.113281 193.84375 Z M 81.113281 189.765625 " fill-opacity="1" fill-rule="nonzero"/><path fill="#1775bb" d="M 77.726562 183.019531 L 81.804688 183.019531 L 81.804688 187.097656 L 77.726562 187.097656 Z M 77.726562 183.019531 " fill-opacity="1" fill-rule="nonzero"/><path fill="#1775bb" d="M 70.667969 199.101562 L 74.746094 199.101562 L 74.746094 203.175781 L 70.667969 203.175781 Z M 70.667969 199.101562 " fill-opacity="1" fill-rule="nonzero"/><path fill="#1775bb" d="M 68.628906 189.765625 L 72.707031 189.765625 L 72.707031 193.84375 L 68.628906 193.84375 Z M 68.628906 189.765625 " fill-opacity="1" fill-rule="nonzero"/><path fill="#1775bb" d="M 61.101562 173.925781 L 65.179688 173.925781 L 65.179688 178 L 61.101562 178 Z M 61.101562 173.925781 " fill-opacity="1" fill-rule="nonzero"/><path fill="#1775bb" d="M 59.0625 183.648438 L 63.140625 183.648438 L 63.140625 187.726562 L 59.0625 187.726562 Z M 59.0625 183.648438 " fill-opacity="1" fill-rule="nonzero"/><path fill="#1775bb" d="M 54.984375 196.667969 L 59.0625 196.667969 L 59.0625 200.742188 L 54.984375 200.742188 Z M 54.984375 196.667969 " fill-opacity="1" fill-rule="nonzero"/><g clip-path="url(#4bae0b8f56)"><path fill="#1775bb" d="M 43.941406 187.726562 L 48.019531 187.726562 L 48.019531 191.804688 L 43.941406 191.804688 Z M 43.941406 187.726562 " fill-opacity="1" fill-rule="nonzero"/></g><g clip-path="url(#483ede8030)"><path fill="#1775bb" d="M 43.0625 201.132812 L 47.140625 201.132812 L 47.140625 205.210938 L 43.0625 205.210938 Z M 43.0625 201.132812 " fill-opacity="1" fill-rule="nonzero"/></g><g clip-path="url(#6baea8084c)"><path fill="#ffffff" d="M 117.476562 227.910156 L 117.476562 218.894531 L 120.640625 214.648438 C 120.660156 214.621094 120.671875 214.589844 120.671875 214.558594 L 120.671875 206.457031 C 120.671875 206.371094 120.605469 206.304688 120.523438 206.304688 C 120.4375 206.304688 120.371094 206.371094 120.371094 206.457031 L 120.371094 214.507812 L 117.207031 218.753906 C 117.1875 218.78125 117.175781 218.8125 117.175781 218.84375 L 117.175781 227.910156 C 117.175781 227.992188 117.242188 228.058594 117.328125 228.058594 C 117.410156 228.058594 117.476562 227.992188 117.476562 227.910156 " fill-opacity="1" fill-rule="nonzero"/></g><g clip-path="url(#35752a5e14)"><path fill="#ffffff" d="M 119.964844 227.910156 L 119.964844 223.449219 L 123.128906 219.203125 C 123.148438 219.175781 123.160156 219.144531 123.160156 219.113281 L 123.160156 211.007812 C 123.160156 210.925781 123.09375 210.859375 123.007812 210.859375 C 122.925781 210.859375 122.859375 210.925781 122.859375 211.007812 L 122.859375 219.0625 L 119.695312 223.308594 C 119.675781 223.332031 119.664062 223.363281 119.664062 223.398438 L 119.664062 227.910156 C 119.664062 227.992188 119.730469 228.058594 119.816406 228.058594 C 119.898438 228.058594 119.964844 227.992188 119.964844 227.910156 " fill-opacity="1" fill-rule="nonzero"/></g><g clip-path="url(#a945edafdf)"><path fill="#ffffff" d="M 116.117188 227.910156 L 116.117188 215.269531 L 118.3125 213.074219 C 118.339844 213.046875 118.355469 213.007812 118.355469 212.96875 L 118.355469 207.253906 C 118.355469 207.171875 118.289062 207.101562 118.207031 207.101562 C 118.121094 207.101562 118.054688 207.171875 118.054688 207.253906 L 118.054688 212.90625 L 115.859375 215.101562 C 115.832031 215.128906 115.816406 215.167969 115.816406 215.207031 L 115.816406 227.910156 C 115.816406 227.992188 115.882812 228.058594 115.964844 228.058594 C 116.050781 228.058594 116.117188 227.992188 116.117188 227.910156 " fill-opacity="1" fill-rule="nonzero"/></g><g clip-path="url(#b5a0fd8897)"><path fill="#ffffff" d="M 114.851562 227.910156 L 114.851562 212.632812 C 114.851562 212.550781 114.785156 212.480469 114.699219 212.480469 C 114.617188 212.480469 114.550781 212.550781 114.550781 212.632812 L 114.550781 227.910156 C 114.550781 227.992188 114.617188 228.058594 114.699219 228.058594 C 114.785156 228.058594 114.851562 227.992188 114.851562 227.910156 " fill-opacity="1" fill-rule="nonzero"/></g><g clip-path="url(#6ac6b1c1d6)"><path fill="#ffffff" d="M 122.949219 227.910156 L 122.949219 222.53125 L 125.027344 219.542969 C 125.046875 219.519531 125.054688 219.488281 125.054688 219.457031 L 125.054688 213.21875 C 125.054688 213.136719 124.988281 213.070312 124.902344 213.070312 C 124.820312 213.070312 124.753906 213.136719 124.753906 213.21875 L 124.753906 219.410156 L 122.675781 222.398438 C 122.65625 222.425781 122.648438 222.453125 122.648438 222.484375 L 122.648438 227.910156 C 122.648438 227.992188 122.714844 228.058594 122.800781 228.058594 C 122.882812 228.058594 122.949219 227.992188 122.949219 227.910156 " fill-opacity="1" fill-rule="nonzero"/></g><g clip-path="url(#deb8c8b130)"><path fill="#ffffff" d="M 121.347656 227.910156 L 121.347656 225.027344 C 121.347656 224.945312 121.277344 224.875 121.195312 224.875 C 121.113281 224.875 121.042969 224.945312 121.042969 225.027344 L 121.042969 227.910156 C 121.042969 227.992188 121.113281 228.058594 121.195312 228.058594 C 121.277344 228.058594 121.347656 227.992188 121.347656 227.910156 " fill-opacity="1" fill-rule="nonzero"/></g><g clip-path="url(#f5733d2c81)"><path fill="#ffffff" d="M 120.003906 219.179688 L 118.515625 220.996094 C 118.492188 221.023438 118.480469 221.058594 118.480469 221.089844 L 118.480469 227.910156 C 118.480469 227.992188 118.546875 228.058594 118.628906 228.058594 C 118.714844 228.058594 118.78125 227.992188 118.78125 227.910156 L 118.78125 221.144531 L 120.238281 219.371094 C 120.289062 219.304688 120.28125 219.210938 120.214844 219.15625 C 120.152344 219.105469 120.054688 219.113281 120.003906 219.179688 " fill-opacity="1" fill-rule="nonzero"/></g><g clip-path="url(#9480ad5e57)"><path fill="#ffffff" d="M 110.679688 213.707031 L 113.140625 217.734375 L 113.140625 227.910156 C 113.140625 227.992188 113.207031 228.058594 113.289062 228.058594 C 113.375 228.058594 113.441406 227.992188 113.441406 227.910156 L 113.441406 217.691406 C 113.441406 217.664062 113.433594 217.636719 113.417969 217.613281 L 110.9375 213.550781 C 110.894531 213.476562 110.800781 213.457031 110.730469 213.5 C 110.660156 213.542969 110.636719 213.636719 110.679688 213.707031 " fill-opacity="1" fill-rule="nonzero"/></g><g clip-path="url(#93874e0a69)"><path fill="#ffffff" d="M 112.199219 227.910156 L 112.199219 219.835938 C 112.199219 219.753906 112.132812 219.683594 112.050781 219.683594 C 111.96875 219.683594 111.898438 219.753906 111.898438 219.835938 L 111.898438 227.910156 C 111.898438 227.992188 111.96875 228.058594 112.050781 228.058594 C 112.132812 228.058594 112.199219 227.992188 112.199219 227.910156 " fill-opacity="1" fill-rule="nonzero"/></g><g clip-path="url(#6cb95a815e)"><path fill="#ffffff" d="M 110.960938 227.910156 L 110.960938 222.21875 C 110.960938 222.179688 110.945312 222.140625 110.917969 222.113281 L 108.253906 219.46875 L 108.253906 216.984375 C 108.253906 216.902344 108.1875 216.835938 108.101562 216.835938 C 108.019531 216.835938 107.953125 216.902344 107.953125 216.984375 L 107.953125 219.53125 C 107.953125 219.570312 107.96875 219.609375 107.996094 219.636719 L 110.660156 222.285156 L 110.660156 227.910156 C 110.660156 227.992188 110.726562 228.058594 110.808594 228.058594 C 110.894531 228.058594 110.960938 227.992188 110.960938 227.910156 " fill-opacity="1" fill-rule="nonzero"/></g><g clip-path="url(#f15ec33591)"><path fill="#ffffff" d="M 121.296875 205.683594 L 121.144531 205.683594 C 121.144531 205.855469 121.074219 206.007812 120.960938 206.121094 C 120.847656 206.234375 120.695312 206.304688 120.523438 206.304688 C 120.347656 206.304688 120.195312 206.234375 120.082031 206.121094 C 119.96875 206.007812 119.898438 205.855469 119.898438 205.683594 C 119.898438 205.507812 119.96875 205.355469 120.082031 205.242188 C 120.195312 205.128906 120.347656 205.058594 120.523438 205.058594 C 120.695312 205.058594 120.847656 205.128906 120.960938 205.242188 C 121.074219 205.355469 121.144531 205.507812 121.144531 205.683594 L 121.445312 205.683594 C 121.445312 205.171875 121.03125 204.757812 120.523438 204.757812 C 120.011719 204.757812 119.597656 205.171875 119.597656 205.683594 C 119.597656 206.191406 120.011719 206.605469 120.523438 206.605469 C 121.03125 206.605469 121.445312 206.191406 121.445312 205.683594 L 121.296875 205.683594 " fill-opacity="1" fill-rule="nonzero"/></g><path fill="#ffffff" d="M 118.980469 206.457031 L 118.828125 206.457031 C 118.828125 206.628906 118.757812 206.78125 118.648438 206.894531 C 118.535156 207.007812 118.378906 207.078125 118.207031 207.078125 C 118.035156 207.078125 117.878906 207.007812 117.765625 206.894531 C 117.652344 206.78125 117.582031 206.628906 117.582031 206.457031 C 117.582031 206.28125 117.652344 206.128906 117.765625 206.015625 C 117.878906 205.902344 118.035156 205.832031 118.207031 205.832031 C 118.378906 205.832031 118.535156 205.902344 118.648438 206.015625 C 118.757812 206.128906 118.828125 206.28125 118.828125 206.457031 L 119.132812 206.457031 C 119.132812 205.945312 118.71875 205.53125 118.207031 205.53125 C 117.695312 205.53125 117.28125 205.945312 117.28125 206.457031 C 117.28125 206.964844 117.695312 207.378906 118.207031 207.378906 C 118.71875 207.378906 119.132812 206.964844 119.132812 206.457031 L 118.980469 206.457031 " fill-opacity="1" fill-rule="nonzero"/><path fill="#ffffff" d="M 115.476562 211.859375 L 115.324219 211.859375 C 115.324219 212.03125 115.253906 212.1875 115.140625 212.300781 C 115.027344 212.414062 114.875 212.480469 114.699219 212.480469 C 114.527344 212.480469 114.375 212.414062 114.261719 212.300781 C 114.148438 212.1875 114.078125 212.03125 114.078125 211.859375 C 114.078125 211.6875 114.148438 211.53125 114.261719 211.417969 C 114.375 211.304688 114.527344 211.234375 114.699219 211.234375 C 114.875 211.234375 115.027344 211.304688 115.140625 211.417969 C 115.253906 211.53125 115.324219 211.6875 115.324219 211.859375 L 115.625 211.859375 C 115.625 211.347656 115.210938 210.933594 114.699219 210.933594 C 114.191406 210.933594 113.777344 211.347656 113.777344 211.859375 C 113.777344 212.371094 114.191406 212.785156 114.699219 212.785156 C 115.210938 212.785156 115.625 212.371094 115.625 211.859375 L 115.476562 211.859375 " fill-opacity="1" fill-rule="nonzero"/><path fill="#ffffff" d="M 111.152344 212.972656 L 111.003906 212.972656 C 111.003906 213.144531 110.933594 213.300781 110.820312 213.414062 C 110.707031 213.527344 110.550781 213.597656 110.378906 213.597656 C 110.207031 213.597656 110.050781 213.527344 109.9375 213.414062 C 109.824219 213.300781 109.757812 213.144531 109.757812 212.972656 C 109.757812 212.800781 109.824219 212.644531 109.9375 212.53125 C 110.050781 212.421875 110.207031 212.351562 110.378906 212.351562 C 110.550781 212.351562 110.707031 212.421875 110.820312 212.53125 C 110.933594 212.644531 111.003906 212.800781 111.003906 212.972656 L 111.304688 212.972656 C 111.304688 212.464844 110.890625 212.046875 110.378906 212.046875 C 109.867188 212.046875 109.453125 212.464844 109.453125 212.972656 C 109.453125 213.484375 109.867188 213.898438 110.378906 213.898438 C 110.890625 213.898438 111.304688 213.484375 111.304688 212.972656 L 111.152344 212.972656 " fill-opacity="1" fill-rule="nonzero"/><g clip-path="url(#8bf31ee006)"><path fill="#ffffff" d="M 108.875 216.210938 L 108.726562 216.210938 C 108.726562 216.382812 108.65625 216.539062 108.542969 216.652344 C 108.429688 216.765625 108.273438 216.835938 108.101562 216.835938 C 107.929688 216.835938 107.773438 216.765625 107.660156 216.652344 C 107.550781 216.539062 107.480469 216.382812 107.480469 216.210938 C 107.480469 216.039062 107.550781 215.882812 107.660156 215.769531 C 107.773438 215.65625 107.929688 215.589844 108.101562 215.589844 C 108.273438 215.589844 108.429688 215.65625 108.542969 215.769531 C 108.65625 215.882812 108.726562 216.039062 108.726562 216.210938 L 109.027344 216.210938 C 109.027344 215.699219 108.613281 215.285156 108.101562 215.285156 C 107.589844 215.285156 107.175781 215.699219 107.175781 216.210938 C 107.175781 216.722656 107.589844 217.136719 108.101562 217.136719 C 108.613281 217.136719 109.027344 216.722656 109.027344 216.210938 L 108.875 216.210938 " fill-opacity="1" fill-rule="nonzero"/></g><path fill="#ffffff" d="M 125.679688 212.445312 L 125.527344 212.445312 C 125.527344 212.617188 125.457031 212.773438 125.34375 212.886719 C 125.230469 213 125.078125 213.070312 124.902344 213.070312 C 124.730469 213.070312 124.578125 213 124.464844 212.886719 C 124.351562 212.773438 124.28125 212.617188 124.28125 212.445312 C 124.28125 212.273438 124.351562 212.117188 124.464844 212.003906 C 124.578125 211.890625 124.730469 211.824219 124.902344 211.824219 C 125.078125 211.824219 125.230469 211.890625 125.34375 212.003906 C 125.457031 212.117188 125.527344 212.273438 125.527344 212.445312 L 125.828125 212.445312 C 125.828125 211.933594 125.414062 211.519531 124.902344 211.519531 C 124.394531 211.519531 123.980469 211.933594 123.980469 212.445312 C 123.980469 212.957031 124.394531 213.371094 124.902344 213.371094 C 125.414062 213.371094 125.828125 212.957031 125.828125 212.445312 L 125.679688 212.445312 " fill-opacity="1" fill-rule="nonzero"/><path fill="#ffffff" d="M 121.96875 224.253906 L 121.820312 224.253906 C 121.820312 224.425781 121.75 224.582031 121.636719 224.695312 C 121.523438 224.808594 121.367188 224.875 121.195312 224.875 C 121.023438 224.875 120.867188 224.808594 120.753906 224.695312 C 120.640625 224.582031 120.574219 224.425781 120.574219 224.253906 C 120.574219 224.082031 120.640625 223.925781 120.753906 223.8125 C 120.867188 223.699219 121.023438 223.628906 121.195312 223.628906 C 121.367188 223.628906 121.523438 223.699219 121.636719 223.8125 C 121.75 223.925781 121.820312 224.082031 121.820312 224.253906 L 122.121094 224.253906 C 122.121094 223.742188 121.707031 223.328125 121.195312 223.328125 C 120.683594 223.328125 120.269531 223.742188 120.269531 224.253906 C 120.269531 224.765625 120.683594 225.179688 121.195312 225.179688 C 121.707031 225.179688 122.121094 224.765625 122.121094 224.253906 L 121.96875 224.253906 " fill-opacity="1" fill-rule="nonzero"/><path fill="#ffffff" d="M 121.363281 218.660156 L 121.210938 218.660156 C 121.210938 218.832031 121.140625 218.984375 121.03125 219.097656 C 120.914062 219.210938 120.761719 219.28125 120.589844 219.28125 C 120.417969 219.28125 120.261719 219.210938 120.148438 219.097656 C 120.035156 218.984375 119.964844 218.832031 119.964844 218.660156 C 119.964844 218.484375 120.035156 218.332031 120.148438 218.21875 C 120.261719 218.105469 120.417969 218.035156 120.589844 218.035156 C 120.761719 218.035156 120.914062 218.105469 121.03125 218.21875 C 121.140625 218.332031 121.210938 218.484375 121.210938 218.660156 L 121.515625 218.660156 C 121.515625 218.148438 121.101562 217.734375 120.589844 217.734375 C 120.078125 217.734375 119.664062 218.148438 119.664062 218.660156 C 119.664062 219.171875 120.078125 219.582031 120.589844 219.582031 C 121.101562 219.582031 121.515625 219.171875 121.515625 218.660156 L 121.363281 218.660156 " fill-opacity="1" fill-rule="nonzero"/><path fill="#ffffff" d="M 112.824219 219.0625 L 112.671875 219.0625 C 112.671875 219.234375 112.605469 219.390625 112.492188 219.503906 C 112.378906 219.613281 112.222656 219.683594 112.050781 219.683594 C 111.878906 219.683594 111.722656 219.613281 111.609375 219.503906 C 111.496094 219.390625 111.425781 219.234375 111.425781 219.0625 C 111.425781 218.890625 111.496094 218.734375 111.609375 218.621094 C 111.722656 218.507812 111.878906 218.4375 112.050781 218.4375 C 112.222656 218.4375 112.378906 218.507812 112.492188 218.621094 C 112.605469 218.734375 112.671875 218.890625 112.671875 219.0625 L 112.976562 219.0625 C 112.976562 218.550781 112.5625 218.136719 112.050781 218.136719 C 111.539062 218.136719 111.125 218.550781 111.125 219.0625 C 111.125 219.574219 111.539062 219.988281 112.050781 219.988281 C 112.5625 219.988281 112.976562 219.574219 112.976562 219.0625 L 112.824219 219.0625 " fill-opacity="1" fill-rule="nonzero"/><path fill="#ffffff" d="M 123.78125 210.234375 L 123.632812 210.234375 C 123.632812 210.40625 123.5625 210.5625 123.449219 210.675781 C 123.335938 210.789062 123.179688 210.859375 123.007812 210.859375 C 122.835938 210.859375 122.679688 210.789062 122.566406 210.675781 C 122.453125 210.5625 122.386719 210.40625 122.386719 210.234375 C 122.386719 210.0625 122.453125 209.90625 122.566406 209.792969 C 122.679688 209.679688 122.835938 209.613281 123.007812 209.613281 C 123.179688 209.613281 123.335938 209.679688 123.449219 209.792969 C 123.5625 209.90625 123.632812 210.0625 123.632812 210.234375 L 123.933594 210.234375 C 123.933594 209.722656 123.519531 209.308594 123.007812 209.308594 C 122.496094 209.308594 122.082031 209.722656 122.082031 210.234375 C 122.082031 210.746094 122.496094 211.160156 123.007812 211.160156 C 123.519531 211.160156 123.933594 210.746094 123.933594 210.234375 L 123.78125 210.234375 " fill-opacity="1" fill-rule="nonzero"/><path fill="#ffffff" d="M 140.792969 194.453125 L 132.21875 194.453125 L 128.175781 191.445312 C 128.152344 191.425781 128.121094 191.414062 128.09375 191.414062 L 120.382812 191.414062 C 120.304688 191.414062 120.238281 191.480469 120.238281 191.558594 C 120.238281 191.636719 120.304688 191.703125 120.382812 191.703125 L 128.042969 191.703125 L 132.082031 194.714844 C 132.109375 194.730469 132.140625 194.742188 132.167969 194.742188 L 140.792969 194.742188 C 140.871094 194.742188 140.9375 194.675781 140.9375 194.597656 C 140.9375 194.519531 140.871094 194.453125 140.792969 194.453125 " fill-opacity="1" fill-rule="nonzero"/><path fill="#ffffff" d="M 140.792969 192.089844 L 136.550781 192.089844 L 132.507812 189.078125 C 132.484375 189.058594 132.453125 189.050781 132.421875 189.050781 L 124.714844 189.050781 C 124.636719 189.050781 124.570312 189.113281 124.570312 189.191406 C 124.570312 189.273438 124.636719 189.335938 124.714844 189.335938 L 132.375 189.335938 L 136.414062 192.347656 C 136.441406 192.367188 136.46875 192.375 136.5 192.375 L 140.792969 192.375 C 140.871094 192.375 140.9375 192.3125 140.9375 192.230469 C 140.9375 192.152344 140.871094 192.089844 140.792969 192.089844 " fill-opacity="1" fill-rule="nonzero"/><path fill="#ffffff" d="M 140.792969 195.75 L 128.769531 195.75 L 126.679688 193.660156 C 126.652344 193.632812 126.617188 193.617188 126.578125 193.617188 L 121.144531 193.617188 C 121.0625 193.617188 121 193.683594 121 193.761719 C 121 193.839844 121.0625 193.90625 121.144531 193.90625 L 126.519531 193.90625 L 128.609375 195.996094 C 128.636719 196.023438 128.671875 196.035156 128.710938 196.035156 L 140.792969 196.035156 C 140.871094 196.035156 140.9375 195.972656 140.9375 195.894531 C 140.9375 195.8125 140.871094 195.75 140.792969 195.75 " fill-opacity="1" fill-rule="nonzero"/><path fill="#ffffff" d="M 140.792969 196.953125 L 126.261719 196.953125 C 126.179688 196.953125 126.117188 197.019531 126.117188 197.097656 C 126.117188 197.175781 126.179688 197.242188 126.261719 197.242188 L 140.792969 197.242188 C 140.871094 197.242188 140.9375 197.175781 140.9375 197.097656 C 140.9375 197.019531 140.871094 196.953125 140.792969 196.953125 " fill-opacity="1" fill-rule="nonzero"/><path fill="#ffffff" d="M 140.792969 189.25 L 135.679688 189.25 L 132.835938 187.273438 C 132.8125 187.253906 132.785156 187.246094 132.753906 187.246094 L 126.820312 187.246094 C 126.738281 187.246094 126.675781 187.308594 126.675781 187.390625 C 126.675781 187.46875 126.738281 187.53125 126.820312 187.53125 L 132.707031 187.535156 L 135.550781 189.511719 C 135.574219 189.527344 135.605469 189.535156 135.632812 189.535156 L 140.792969 189.535156 C 140.871094 189.535156 140.9375 189.472656 140.9375 189.390625 C 140.9375 189.3125 140.871094 189.25 140.792969 189.25 " fill-opacity="1" fill-rule="nonzero"/><path fill="#ffffff" d="M 140.792969 190.773438 L 138.050781 190.773438 C 137.972656 190.773438 137.910156 190.839844 137.910156 190.917969 C 137.910156 190.996094 137.972656 191.0625 138.050781 191.0625 L 140.792969 191.0625 C 140.871094 191.0625 140.9375 190.996094 140.9375 190.917969 C 140.9375 190.839844 140.871094 190.773438 140.792969 190.773438 " fill-opacity="1" fill-rule="nonzero"/><path fill="#ffffff" d="M 132.488281 192.050781 L 134.214844 193.46875 C 134.242188 193.492188 134.273438 193.5 134.308594 193.5 L 140.792969 193.5 C 140.871094 193.5 140.9375 193.4375 140.9375 193.359375 C 140.9375 193.277344 140.871094 193.214844 140.792969 193.214844 L 134.359375 193.214844 L 132.667969 191.828125 C 132.609375 191.78125 132.519531 191.789062 132.46875 191.851562 C 132.417969 191.910156 132.425781 192 132.488281 192.050781 " fill-opacity="1" fill-rule="nonzero"/><path fill="#ffffff" d="M 127.28125 200.921875 L 131.113281 198.582031 L 140.792969 198.582031 C 140.871094 198.582031 140.9375 198.519531 140.9375 198.4375 C 140.9375 198.359375 140.871094 198.296875 140.792969 198.296875 L 131.070312 198.296875 C 131.046875 198.296875 131.019531 198.300781 130.996094 198.316406 L 127.132812 200.675781 C 127.0625 200.71875 127.042969 200.804688 127.082031 200.875 C 127.125 200.941406 127.214844 200.960938 127.28125 200.921875 " fill-opacity="1" fill-rule="nonzero"/><path fill="#ffffff" d="M 140.792969 199.476562 L 133.113281 199.476562 C 133.035156 199.476562 132.96875 199.539062 132.96875 199.617188 C 132.96875 199.699219 133.035156 199.761719 133.113281 199.761719 L 140.792969 199.761719 C 140.871094 199.761719 140.9375 199.699219 140.9375 199.617188 C 140.9375 199.539062 140.871094 199.476562 140.792969 199.476562 " fill-opacity="1" fill-rule="nonzero"/><path fill="#ffffff" d="M 140.792969 200.65625 L 135.382812 200.65625 C 135.34375 200.65625 135.308594 200.671875 135.28125 200.699219 L 132.761719 203.230469 L 130.402344 203.230469 C 130.320312 203.230469 130.257812 203.296875 130.257812 203.375 C 130.257812 203.453125 130.320312 203.519531 130.402344 203.519531 L 132.824219 203.519531 C 132.863281 203.519531 132.898438 203.503906 132.925781 203.476562 L 135.441406 200.941406 L 140.792969 200.941406 C 140.871094 200.941406 140.9375 200.878906 140.9375 200.800781 C 140.9375 200.71875 140.871094 200.65625 140.792969 200.65625 " fill-opacity="1" fill-rule="nonzero"/><g clip-path="url(#638a68e16c)"><path fill="#ffffff" d="M 119.648438 190.824219 L 119.648438 190.964844 C 119.8125 190.964844 119.957031 191.03125 120.066406 191.140625 C 120.171875 191.246094 120.238281 191.394531 120.238281 191.558594 C 120.238281 191.722656 120.171875 191.871094 120.066406 191.980469 C 119.957031 192.085938 119.8125 192.152344 119.648438 192.152344 C 119.480469 192.152344 119.335938 192.085938 119.226562 191.980469 C 119.121094 191.871094 119.054688 191.722656 119.054688 191.558594 C 119.054688 191.394531 119.121094 191.246094 119.226562 191.140625 C 119.335938 191.03125 119.480469 190.964844 119.648438 190.964844 L 119.648438 190.679688 C 119.160156 190.679688 118.765625 191.074219 118.765625 191.558594 C 118.765625 192.046875 119.160156 192.4375 119.648438 192.4375 C 120.132812 192.4375 120.527344 192.046875 120.527344 191.558594 C 120.527344 191.074219 120.132812 190.679688 119.648438 190.679688 L 119.648438 190.824219 " fill-opacity="1" fill-rule="nonzero"/></g><path fill="#ffffff" d="M 120.382812 193.027344 L 120.382812 193.167969 C 120.546875 193.167969 120.695312 193.234375 120.800781 193.34375 C 120.910156 193.449219 120.976562 193.597656 120.976562 193.761719 C 120.976562 193.925781 120.910156 194.074219 120.800781 194.179688 C 120.695312 194.289062 120.546875 194.355469 120.382812 194.355469 C 120.21875 194.355469 120.070312 194.289062 119.964844 194.179688 C 119.855469 194.074219 119.789062 193.925781 119.789062 193.761719 C 119.789062 193.597656 119.855469 193.449219 119.964844 193.34375 C 120.070312 193.234375 120.21875 193.167969 120.382812 193.167969 L 120.382812 192.882812 C 119.898438 192.882812 119.503906 193.277344 119.503906 193.761719 C 119.503906 194.25 119.898438 194.640625 120.382812 194.640625 C 120.867188 194.640625 121.261719 194.25 121.261719 193.761719 C 121.261719 193.277344 120.867188 192.882812 120.382812 192.882812 L 120.382812 193.027344 " fill-opacity="1" fill-rule="nonzero"/><path fill="#ffffff" d="M 125.523438 196.359375 L 125.523438 196.503906 C 125.6875 196.503906 125.835938 196.570312 125.941406 196.679688 C 126.050781 196.785156 126.117188 196.933594 126.117188 197.097656 C 126.117188 197.261719 126.050781 197.410156 125.941406 197.515625 C 125.835938 197.625 125.6875 197.691406 125.523438 197.691406 C 125.359375 197.691406 125.210938 197.625 125.105469 197.515625 C 124.996094 197.410156 124.929688 197.261719 124.929688 197.097656 C 124.929688 196.933594 124.996094 196.785156 125.105469 196.679688 C 125.210938 196.570312 125.359375 196.503906 125.523438 196.503906 L 125.523438 196.21875 C 125.039062 196.21875 124.644531 196.609375 124.644531 197.097656 C 124.644531 197.582031 125.039062 197.976562 125.523438 197.976562 C 126.007812 197.976562 126.402344 197.582031 126.402344 197.097656 C 126.402344 196.609375 126.007812 196.21875 125.523438 196.21875 L 125.523438 196.359375 " fill-opacity="1" fill-rule="nonzero"/><path fill="#ffffff" d="M 126.585938 200.472656 L 126.585938 200.617188 C 126.75 200.617188 126.894531 200.683594 127.003906 200.789062 C 127.109375 200.898438 127.175781 201.042969 127.175781 201.207031 C 127.175781 201.371094 127.109375 201.519531 127.003906 201.628906 C 126.894531 201.734375 126.75 201.800781 126.585938 201.800781 C 126.421875 201.800781 126.273438 201.734375 126.164062 201.628906 C 126.058594 201.519531 125.992188 201.371094 125.992188 201.207031 C 125.992188 201.042969 126.058594 200.898438 126.164062 200.789062 C 126.273438 200.683594 126.421875 200.617188 126.585938 200.617188 L 126.585938 200.328125 C 126.097656 200.328125 125.703125 200.722656 125.703125 201.207031 C 125.703125 201.695312 126.097656 202.089844 126.585938 202.089844 C 127.070312 202.089844 127.464844 201.695312 127.464844 201.207031 C 127.464844 200.722656 127.070312 200.328125 126.585938 200.328125 L 126.585938 200.472656 " fill-opacity="1" fill-rule="nonzero"/><g clip-path="url(#44586094d3)"><path fill="#ffffff" d="M 129.664062 202.636719 L 129.664062 202.78125 C 129.828125 202.78125 129.976562 202.847656 130.085938 202.957031 C 130.191406 203.0625 130.257812 203.210938 130.257812 203.375 C 130.257812 203.539062 130.191406 203.6875 130.085938 203.792969 C 129.976562 203.902344 129.828125 203.96875 129.664062 203.96875 C 129.5 203.96875 129.351562 203.902344 129.246094 203.792969 C 129.136719 203.6875 129.070312 203.539062 129.070312 203.375 C 129.070312 203.210938 129.136719 203.0625 129.246094 202.957031 C 129.351562 202.847656 129.5 202.78125 129.664062 202.78125 L 129.664062 202.496094 C 129.179688 202.496094 128.785156 202.886719 128.785156 203.375 C 128.785156 203.859375 129.179688 204.253906 129.664062 204.253906 C 130.152344 204.253906 130.542969 203.859375 130.542969 203.375 C 130.542969 202.886719 130.152344 202.496094 129.664062 202.496094 L 129.664062 202.636719 " fill-opacity="1" fill-rule="nonzero"/></g><g clip-path="url(#ca11199f60)"><path fill="#ffffff" d="M 126.082031 186.652344 L 126.082031 186.796875 C 126.246094 186.796875 126.394531 186.863281 126.5 186.96875 C 126.609375 187.078125 126.675781 187.226562 126.675781 187.390625 C 126.675781 187.554688 126.609375 187.699219 126.5 187.808594 C 126.394531 187.917969 126.246094 187.984375 126.082031 187.984375 C 125.917969 187.984375 125.769531 187.917969 125.664062 187.808594 C 125.554688 187.699219 125.488281 187.554688 125.488281 187.390625 C 125.488281 187.226562 125.554688 187.078125 125.664062 186.96875 C 125.769531 186.863281 125.917969 186.796875 126.082031 186.796875 L 126.082031 186.511719 C 125.597656 186.511719 125.203125 186.902344 125.203125 187.390625 C 125.203125 187.875 125.597656 188.269531 126.082031 188.269531 C 126.570312 188.269531 126.960938 187.875 126.960938 187.390625 C 126.960938 186.902344 126.570312 186.511719 126.082031 186.511719 L 126.082031 186.652344 " fill-opacity="1" fill-rule="nonzero"/></g><path fill="#ffffff" d="M 137.316406 190.179688 L 137.316406 190.324219 C 137.480469 190.324219 137.628906 190.390625 137.734375 190.5 C 137.84375 190.605469 137.910156 190.753906 137.910156 190.917969 C 137.910156 191.082031 137.84375 191.230469 137.734375 191.335938 C 137.628906 191.445312 137.480469 191.511719 137.316406 191.511719 C 137.152344 191.511719 137.003906 191.445312 136.898438 191.335938 C 136.789062 191.230469 136.722656 191.082031 136.722656 190.917969 C 136.722656 190.753906 136.789062 190.605469 136.898438 190.5 C 137.003906 190.390625 137.152344 190.324219 137.316406 190.324219 L 137.316406 190.039062 C 136.828125 190.039062 136.4375 190.429688 136.4375 190.917969 C 136.4375 191.402344 136.828125 191.796875 137.316406 191.796875 C 137.800781 191.796875 138.195312 191.402344 138.195312 190.917969 C 138.195312 190.429688 137.800781 190.039062 137.316406 190.039062 L 137.316406 190.179688 " fill-opacity="1" fill-rule="nonzero"/><path fill="#ffffff" d="M 131.992188 190.757812 L 131.992188 190.902344 C 132.15625 190.902344 132.304688 190.96875 132.414062 191.074219 C 132.519531 191.183594 132.585938 191.332031 132.585938 191.496094 C 132.585938 191.660156 132.519531 191.808594 132.414062 191.914062 C 132.304688 192.023438 132.15625 192.089844 131.992188 192.089844 C 131.828125 192.089844 131.679688 192.023438 131.574219 191.914062 C 131.464844 191.808594 131.398438 191.660156 131.398438 191.496094 C 131.398438 191.332031 131.464844 191.183594 131.574219 191.074219 C 131.679688 190.96875 131.828125 190.902344 131.992188 190.902344 L 131.992188 190.617188 C 131.507812 190.617188 131.113281 191.007812 131.113281 191.496094 C 131.113281 191.980469 131.507812 192.375 131.992188 192.375 C 132.480469 192.375 132.875 191.980469 132.875 191.496094 C 132.875 191.007812 132.480469 190.617188 131.992188 190.617188 L 131.992188 190.757812 " fill-opacity="1" fill-rule="nonzero"/><path fill="#ffffff" d="M 132.375 198.882812 L 132.375 199.027344 C 132.539062 199.027344 132.6875 199.09375 132.796875 199.199219 C 132.902344 199.308594 132.96875 199.453125 132.96875 199.617188 C 132.96875 199.78125 132.902344 199.929688 132.796875 200.039062 C 132.6875 200.144531 132.539062 200.210938 132.375 200.210938 C 132.210938 200.210938 132.066406 200.144531 131.957031 200.039062 C 131.847656 199.929688 131.785156 199.78125 131.785156 199.617188 C 131.785156 199.453125 131.847656 199.308594 131.957031 199.199219 C 132.066406 199.09375 132.210938 199.027344 132.375 199.027344 L 132.375 198.738281 C 131.890625 198.738281 131.496094 199.132812 131.496094 199.617188 C 131.496094 200.105469 131.890625 200.5 132.375 200.5 C 132.863281 200.5 133.257812 200.105469 133.257812 199.617188 C 133.257812 199.132812 132.863281 198.738281 132.375 198.738281 L 132.375 198.882812 " fill-opacity="1" fill-rule="nonzero"/><path fill="#ffffff" d="M 123.976562 188.457031 L 123.976562 188.601562 C 124.140625 188.601562 124.289062 188.667969 124.398438 188.773438 C 124.503906 188.882812 124.570312 189.027344 124.570312 189.191406 C 124.570312 189.355469 124.503906 189.503906 124.398438 189.613281 C 124.289062 189.71875 124.140625 189.785156 123.976562 189.785156 C 123.8125 189.785156 123.667969 189.71875 123.558594 189.613281 C 123.453125 189.503906 123.386719 189.355469 123.386719 189.191406 C 123.386719 189.027344 123.453125 188.882812 123.558594 188.773438 C 123.667969 188.667969 123.8125 188.601562 123.976562 188.601562 L 123.976562 188.3125 C 123.492188 188.3125 123.097656 188.707031 123.097656 189.191406 C 123.097656 189.679688 123.492188 190.074219 123.976562 190.074219 C 124.464844 190.074219 124.859375 189.679688 124.859375 189.191406 C 124.859375 188.707031 124.464844 188.3125 123.976562 188.3125 L 123.976562 188.457031 " fill-opacity="1" fill-rule="nonzero"/><path fill="#ffffff" d="M 111.980469 166.214844 L 111.980469 174.792969 L 108.972656 178.832031 C 108.953125 178.855469 108.941406 178.886719 108.941406 178.917969 L 108.941406 186.628906 C 108.941406 186.707031 109.007812 186.769531 109.085938 186.769531 C 109.164062 186.769531 109.230469 186.707031 109.230469 186.628906 L 109.230469 178.964844 L 112.242188 174.925781 C 112.257812 174.902344 112.269531 174.871094 112.269531 174.839844 L 112.269531 166.214844 C 112.269531 166.136719 112.203125 166.074219 112.125 166.074219 C 112.046875 166.074219 111.980469 166.136719 111.980469 166.214844 " fill-opacity="1" fill-rule="nonzero"/><path fill="#ffffff" d="M 109.617188 166.214844 L 109.617188 170.460938 L 106.605469 174.5 C 106.585938 174.527344 106.578125 174.554688 106.578125 174.585938 L 106.578125 182.296875 C 106.578125 182.375 106.640625 182.441406 106.71875 182.441406 C 106.800781 182.441406 106.863281 182.375 106.863281 182.296875 L 106.863281 174.632812 L 109.875 170.59375 C 109.890625 170.570312 109.902344 170.539062 109.902344 170.507812 L 109.902344 166.214844 C 109.902344 166.136719 109.839844 166.074219 109.757812 166.074219 C 109.679688 166.074219 109.617188 166.136719 109.617188 166.214844 " fill-opacity="1" fill-rule="nonzero"/><path fill="#ffffff" d="M 113.277344 166.214844 L 113.277344 178.242188 L 111.1875 180.328125 C 111.160156 180.355469 111.144531 180.390625 111.144531 180.429688 L 111.144531 185.867188 C 111.144531 185.945312 111.210938 186.011719 111.289062 186.011719 C 111.367188 186.011719 111.433594 185.945312 111.433594 185.867188 L 111.433594 180.488281 L 113.523438 178.402344 C 113.550781 178.375 113.5625 178.335938 113.5625 178.300781 L 113.5625 166.214844 C 113.5625 166.136719 113.5 166.074219 113.421875 166.074219 C 113.339844 166.074219 113.277344 166.136719 113.277344 166.214844 " fill-opacity="1" fill-rule="nonzero"/><path fill="#ffffff" d="M 114.480469 166.214844 L 114.480469 180.75 C 114.480469 180.828125 114.546875 180.894531 114.625 180.894531 C 114.703125 180.894531 114.769531 180.828125 114.769531 180.75 L 114.769531 166.214844 C 114.769531 166.136719 114.703125 166.074219 114.625 166.074219 C 114.546875 166.074219 114.480469 166.136719 114.480469 166.214844 " fill-opacity="1" fill-rule="nonzero"/><g clip-path="url(#ac5fe40307)"><path fill="#ffffff" d="M 106.777344 166.214844 L 106.777344 171.332031 L 104.800781 174.175781 C 104.78125 174.199219 104.773438 174.226562 104.773438 174.257812 L 104.773438 180.191406 C 104.773438 180.269531 104.835938 180.335938 104.917969 180.335938 C 104.996094 180.335938 105.058594 180.269531 105.058594 180.191406 L 105.0625 174.300781 L 107.039062 171.457031 C 107.054688 171.433594 107.0625 171.40625 107.0625 171.375 L 107.0625 166.214844 C 107.0625 166.136719 107 166.074219 106.917969 166.074219 C 106.839844 166.074219 106.777344 166.136719 106.777344 166.214844 " fill-opacity="1" fill-rule="nonzero"/></g><path fill="#ffffff" d="M 108.300781 166.214844 L 108.300781 168.957031 C 108.300781 169.039062 108.367188 169.101562 108.445312 169.101562 C 108.523438 169.101562 108.589844 169.039062 108.589844 168.957031 L 108.589844 166.214844 C 108.589844 166.136719 108.523438 166.074219 108.445312 166.074219 C 108.367188 166.074219 108.300781 166.136719 108.300781 166.214844 " fill-opacity="1" fill-rule="nonzero"/><path fill="#ffffff" d="M 109.578125 174.523438 L 110.996094 172.792969 C 111.019531 172.769531 111.027344 172.734375 111.027344 172.703125 L 111.027344 166.214844 C 111.027344 166.136719 110.964844 166.074219 110.886719 166.074219 C 110.804688 166.074219 110.742188 166.136719 110.742188 166.214844 L 110.742188 172.652344 L 109.355469 174.339844 C 109.304688 174.402344 109.316406 174.492188 109.375 174.542969 C 109.4375 174.59375 109.527344 174.585938 109.578125 174.523438 " fill-opacity="1" fill-rule="nonzero"/><path fill="#ffffff" d="M 118.449219 179.730469 L 116.109375 175.898438 L 116.109375 166.214844 C 116.109375 166.136719 116.046875 166.074219 115.964844 166.074219 C 115.886719 166.074219 115.824219 166.136719 115.824219 166.214844 L 115.824219 175.9375 C 115.824219 175.964844 115.828125 175.992188 115.84375 176.011719 L 118.203125 179.878906 C 118.246094 179.945312 118.332031 179.96875 118.402344 179.925781 C 118.46875 179.886719 118.488281 179.796875 118.449219 179.730469 " fill-opacity="1" fill-rule="nonzero"/><path fill="#ffffff" d="M 117.003906 166.214844 L 117.003906 173.898438 C 117.003906 173.976562 117.066406 174.042969 117.144531 174.042969 C 117.226562 174.042969 117.289062 173.976562 117.289062 173.898438 L 117.289062 166.214844 C 117.289062 166.136719 117.226562 166.074219 117.144531 166.074219 C 117.066406 166.074219 117.003906 166.136719 117.003906 166.214844 " fill-opacity="1" fill-rule="nonzero"/><g clip-path="url(#3c070f3332)"><path fill="#ffffff" d="M 118.183594 166.214844 L 118.183594 171.628906 C 118.183594 171.667969 118.199219 171.703125 118.226562 171.730469 L 120.757812 174.246094 L 120.757812 176.609375 C 120.757812 176.6875 120.824219 176.753906 120.902344 176.753906 C 120.980469 176.753906 121.046875 176.6875 121.046875 176.609375 L 121.046875 174.1875 C 121.046875 174.148438 121.03125 174.113281 121.003906 174.085938 L 118.46875 171.570312 L 118.46875 166.214844 C 118.46875 166.136719 118.40625 166.074219 118.324219 166.074219 C 118.246094 166.074219 118.183594 166.136719 118.183594 166.214844 " fill-opacity="1" fill-rule="nonzero"/></g><g clip-path="url(#2cf6f82acb)"><path fill="#ffffff" d="M 108.351562 187.363281 L 108.492188 187.363281 C 108.492188 187.199219 108.558594 187.050781 108.667969 186.945312 C 108.773438 186.835938 108.921875 186.769531 109.085938 186.769531 C 109.25 186.769531 109.398438 186.835938 109.503906 186.945312 C 109.613281 187.050781 109.679688 187.199219 109.679688 187.363281 C 109.679688 187.527344 109.613281 187.675781 109.503906 187.785156 C 109.398438 187.890625 109.25 187.957031 109.085938 187.957031 C 108.921875 187.957031 108.773438 187.890625 108.667969 187.785156 C 108.558594 187.675781 108.492188 187.527344 108.492188 187.363281 L 108.207031 187.363281 C 108.207031 187.851562 108.601562 188.242188 109.085938 188.246094 C 109.574219 188.242188 109.964844 187.851562 109.964844 187.363281 C 109.964844 186.878906 109.574219 186.484375 109.085938 186.484375 C 108.601562 186.484375 108.207031 186.878906 108.207031 187.363281 L 108.351562 187.363281 " fill-opacity="1" fill-rule="nonzero"/></g><path fill="#ffffff" d="M 110.554688 186.628906 L 110.695312 186.628906 C 110.695312 186.464844 110.761719 186.316406 110.871094 186.207031 C 110.976562 186.101562 111.125 186.035156 111.289062 186.035156 C 111.453125 186.035156 111.601562 186.101562 111.707031 186.207031 C 111.816406 186.316406 111.882812 186.464844 111.882812 186.628906 C 111.882812 186.792969 111.816406 186.9375 111.707031 187.046875 C 111.601562 187.15625 111.453125 187.21875 111.289062 187.21875 C 111.125 187.21875 110.976562 187.15625 110.871094 187.046875 C 110.761719 186.9375 110.695312 186.792969 110.695312 186.628906 L 110.410156 186.628906 C 110.410156 187.113281 110.804688 187.507812 111.289062 187.507812 C 111.773438 187.507812 112.167969 187.113281 112.167969 186.628906 C 112.167969 186.140625 111.773438 185.746094 111.289062 185.746094 C 110.804688 185.746094 110.410156 186.140625 110.410156 186.628906 L 110.554688 186.628906 " fill-opacity="1" fill-rule="nonzero"/><path fill="#ffffff" d="M 113.886719 181.488281 L 114.03125 181.488281 C 114.03125 181.324219 114.097656 181.175781 114.207031 181.066406 C 114.3125 180.960938 114.460938 180.894531 114.625 180.894531 C 114.789062 180.894531 114.9375 180.960938 115.042969 181.066406 C 115.152344 181.175781 115.21875 181.324219 115.21875 181.488281 C 115.21875 181.652344 115.152344 181.796875 115.042969 181.90625 C 114.9375 182.015625 114.789062 182.078125 114.625 182.082031 C 114.460938 182.078125 114.3125 182.015625 114.207031 181.90625 C 114.097656 181.796875 114.03125 181.652344 114.03125 181.488281 L 113.746094 181.488281 C 113.746094 181.972656 114.136719 182.367188 114.625 182.367188 C 115.109375 182.367188 115.503906 181.972656 115.503906 181.488281 C 115.503906 181 115.109375 180.605469 114.625 180.605469 C 114.136719 180.605469 113.746094 181 113.746094 181.488281 L 113.886719 181.488281 " fill-opacity="1" fill-rule="nonzero"/><path fill="#ffffff" d="M 118 180.425781 L 118.144531 180.425781 C 118.144531 180.261719 118.210938 180.113281 118.316406 180.007812 C 118.425781 179.898438 118.570312 179.832031 118.734375 179.832031 C 118.898438 179.832031 119.046875 179.898438 119.15625 180.007812 C 119.261719 180.113281 119.328125 180.261719 119.328125 180.425781 C 119.328125 180.589844 119.261719 180.738281 119.15625 180.84375 C 119.046875 180.953125 118.898438 181.019531 118.734375 181.019531 C 118.570312 181.019531 118.425781 180.953125 118.316406 180.84375 C 118.210938 180.738281 118.144531 180.589844 118.144531 180.425781 L 117.855469 180.425781 C 117.855469 180.914062 118.25 181.304688 118.734375 181.304688 C 119.222656 181.304688 119.617188 180.914062 119.617188 180.425781 C 119.617188 179.941406 119.222656 179.546875 118.734375 179.546875 C 118.25 179.546875 117.855469 179.941406 117.855469 180.425781 L 118 180.425781 " fill-opacity="1" fill-rule="nonzero"/><g clip-path="url(#8b4295cd3c)"><path fill="#ffffff" d="M 120.164062 177.347656 L 120.308594 177.347656 C 120.308594 177.179688 120.375 177.035156 120.484375 176.925781 C 120.589844 176.820312 120.738281 176.753906 120.902344 176.753906 C 121.066406 176.753906 121.214844 176.820312 121.320312 176.925781 C 121.429688 177.035156 121.496094 177.179688 121.496094 177.347656 C 121.496094 177.507812 121.429688 177.65625 121.320312 177.765625 C 121.214844 177.871094 121.066406 177.9375 120.902344 177.9375 C 120.738281 177.9375 120.589844 177.871094 120.484375 177.765625 C 120.375 177.65625 120.308594 177.507812 120.308594 177.347656 L 120.023438 177.347656 C 120.023438 177.832031 120.414062 178.226562 120.902344 178.226562 C 121.386719 178.226562 121.78125 177.832031 121.78125 177.347656 C 121.78125 176.859375 121.386719 176.464844 120.902344 176.464844 C 120.414062 176.464844 120.023438 176.859375 120.023438 177.347656 L 120.164062 177.347656 " fill-opacity="1" fill-rule="nonzero"/></g><g clip-path="url(#f1b167bb91)"><path fill="#ffffff" d="M 104.179688 180.929688 L 104.324219 180.929688 C 104.324219 180.765625 104.390625 180.617188 104.496094 180.507812 C 104.605469 180.402344 104.753906 180.335938 104.917969 180.335938 C 105.082031 180.335938 105.226562 180.402344 105.335938 180.507812 C 105.445312 180.617188 105.511719 180.765625 105.511719 180.929688 C 105.511719 181.09375 105.445312 181.238281 105.335938 181.347656 C 105.226562 181.453125 105.082031 181.519531 104.917969 181.519531 C 104.753906 181.519531 104.605469 181.453125 104.496094 181.347656 C 104.390625 181.238281 104.324219 181.09375 104.324219 180.929688 L 104.035156 180.929688 C 104.035156 181.414062 104.429688 181.808594 104.917969 181.808594 C 105.402344 181.808594 105.796875 181.414062 105.796875 180.929688 C 105.796875 180.441406 105.402344 180.046875 104.917969 180.046875 C 104.429688 180.046875 104.035156 180.441406 104.035156 180.929688 L 104.179688 180.929688 " fill-opacity="1" fill-rule="nonzero"/></g><path fill="#ffffff" d="M 107.707031 169.695312 L 107.851562 169.695312 C 107.851562 169.53125 107.917969 169.382812 108.027344 169.273438 C 108.132812 169.167969 108.28125 169.101562 108.445312 169.101562 C 108.609375 169.101562 108.757812 169.167969 108.863281 169.273438 C 108.972656 169.382812 109.039062 169.53125 109.039062 169.695312 C 109.039062 169.859375 108.972656 170.003906 108.863281 170.113281 C 108.757812 170.222656 108.609375 170.285156 108.445312 170.285156 C 108.28125 170.285156 108.132812 170.222656 108.027344 170.113281 C 107.917969 170.003906 107.851562 169.859375 107.851562 169.695312 L 107.566406 169.695312 C 107.566406 170.179688 107.957031 170.574219 108.445312 170.574219 C 108.929688 170.574219 109.324219 170.179688 109.324219 169.695312 C 109.324219 169.207031 108.929688 168.8125 108.445312 168.8125 C 107.957031 168.8125 107.566406 169.207031 107.566406 169.695312 L 107.707031 169.695312 " fill-opacity="1" fill-rule="nonzero"/><path fill="#ffffff" d="M 108.285156 175.015625 L 108.429688 175.015625 C 108.429688 174.851562 108.496094 174.707031 108.601562 174.597656 C 108.710938 174.492188 108.859375 174.425781 109.023438 174.425781 C 109.1875 174.425781 109.335938 174.492188 109.441406 174.597656 C 109.550781 174.707031 109.617188 174.851562 109.617188 175.015625 C 109.617188 175.179688 109.550781 175.328125 109.441406 175.4375 C 109.335938 175.542969 109.1875 175.609375 109.023438 175.609375 C 108.859375 175.609375 108.710938 175.542969 108.601562 175.4375 C 108.496094 175.328125 108.429688 175.179688 108.429688 175.015625 L 108.140625 175.015625 C 108.140625 175.503906 108.535156 175.898438 109.023438 175.898438 C 109.507812 175.898438 109.902344 175.503906 109.902344 175.015625 C 109.902344 174.53125 109.507812 174.136719 109.023438 174.136719 C 108.535156 174.136719 108.140625 174.53125 108.140625 175.015625 L 108.285156 175.015625 " fill-opacity="1" fill-rule="nonzero"/><path fill="#ffffff" d="M 116.410156 174.632812 L 116.554688 174.632812 C 116.554688 174.46875 116.621094 174.324219 116.726562 174.214844 C 116.835938 174.109375 116.980469 174.042969 117.144531 174.042969 C 117.308594 174.042969 117.457031 174.109375 117.566406 174.214844 C 117.671875 174.324219 117.738281 174.46875 117.738281 174.632812 C 117.738281 174.796875 117.671875 174.945312 117.566406 175.054688 C 117.457031 175.160156 117.308594 175.226562 117.144531 175.226562 C 116.980469 175.226562 116.835938 175.160156 116.726562 175.054688 C 116.621094 174.945312 116.554688 174.796875 116.554688 174.632812 L 116.265625 174.632812 C 116.265625 175.121094 116.660156 175.515625 117.144531 175.515625 C 117.632812 175.515625 118.027344 175.121094 118.027344 174.632812 C 118.027344 174.148438 117.632812 173.753906 117.144531 173.753906 C 116.660156 173.753906 116.265625 174.148438 116.265625 174.632812 L 116.410156 174.632812 " fill-opacity="1" fill-rule="nonzero"/><path fill="#ffffff" d="M 105.984375 183.03125 L 106.128906 183.03125 C 106.128906 182.867188 106.195312 182.722656 106.300781 182.613281 C 106.410156 182.503906 106.554688 182.441406 106.71875 182.441406 C 106.882812 182.441406 107.03125 182.503906 107.140625 182.613281 C 107.246094 182.722656 107.3125 182.867188 107.3125 183.03125 C 107.3125 183.195312 107.246094 183.34375 107.140625 183.453125 C 107.03125 183.558594 106.882812 183.625 106.71875 183.625 C 106.554688 183.625 106.410156 183.558594 106.300781 183.453125 C 106.195312 183.34375 106.128906 183.195312 106.128906 183.03125 L 105.839844 183.03125 C 105.839844 183.519531 106.234375 183.910156 106.71875 183.914062 C 107.207031 183.910156 107.601562 183.519531 107.601562 183.03125 C 107.601562 182.546875 107.207031 182.152344 106.71875 182.152344 C 106.234375 182.152344 105.839844 182.546875 105.839844 183.03125 L 105.984375 183.03125 " fill-opacity="1" fill-rule="nonzero"/><g fill="#1775bb" fill-opacity="1"><g transform="translate(160.114228, 205.177794)"><g><path d="M 15.90625 -11.625 C 15.90625 -10.90625 15.785156 -10.238281 15.546875 -9.625 C 15.316406 -9.019531 14.953125 -8.5 14.453125 -8.0625 C 13.953125 -7.625 13.316406 -7.28125 12.546875 -7.03125 C 11.773438 -6.789062 10.847656 -6.671875 9.765625 -6.671875 L 5.09375 -6.671875 L 5.09375 0 L 2.078125 0 L 2.078125 -17.484375 L 9.765625 -17.484375 C 10.847656 -17.484375 11.773438 -17.359375 12.546875 -17.109375 C 13.316406 -16.867188 13.953125 -16.523438 14.453125 -16.078125 C 14.953125 -15.628906 15.316406 -15.097656 15.546875 -14.484375 C 15.785156 -13.878906 15.90625 -13.207031 15.90625 -12.46875 Z M 12.859375 -12.5 C 12.859375 -13.195312 12.644531 -13.765625 12.21875 -14.203125 C 11.789062 -14.640625 11.050781 -14.859375 10 -14.859375 L 5.09375 -14.859375 L 5.09375 -9.15625 L 10.078125 -9.15625 C 11.109375 -9.15625 11.828125 -9.382812 12.234375 -9.84375 C 12.648438 -10.300781 12.859375 -10.878906 12.859375 -11.578125 Z M 12.859375 -12.5 "/></g></g></g><g fill="#1775bb" fill-opacity="1"><g transform="translate(179.093772, 205.177794)"><g><path d="M 14.09375 0 L 14.09375 -7.5625 L 5.09375 -7.5625 L 5.09375 0 L 2.078125 0 L 2.078125 -17.484375 L 5.09375 -17.484375 L 5.09375 -10.078125 L 14.09375 -10.078125 L 14.09375 -17.484375 L 17.109375 -17.484375 L 17.109375 0 Z M 14.09375 0 "/></g></g></g><g fill="#1775bb" fill-opacity="1"><g transform="translate(200.278329, 205.177794)"><g><path d="M 14.125 0 L 12.421875 -4.40625 L 5.046875 -4.40625 L 3.390625 0 L 0.28125 0 L 7.328125 -17.484375 L 10.15625 -17.484375 L 17.296875 0 Z M 8.65625 -13.890625 L 5.9375 -6.765625 L 11.46875 -6.765625 Z M 8.65625 -13.890625 "/></g></g></g><g fill="#1775bb" fill-opacity="1"><g transform="translate(219.835377, 205.177794)"><g><path d="M 15.09375 0.109375 C 14.289062 0.109375 13.722656 -0.117188 13.390625 -0.578125 C 13.054688 -1.046875 12.875 -1.726562 12.84375 -2.625 L 12.78125 -4.9375 C 12.757812 -5.320312 12.703125 -5.660156 12.609375 -5.953125 C 12.515625 -6.253906 12.347656 -6.5 12.109375 -6.6875 C 11.878906 -6.882812 11.566406 -7.035156 11.171875 -7.140625 C 10.773438 -7.242188 10.28125 -7.296875 9.6875 -7.296875 L 5.09375 -7.296875 L 5.09375 0 L 2.078125 0 L 2.078125 -17.484375 L 9.765625 -17.484375 C 10.847656 -17.484375 11.78125 -17.367188 12.5625 -17.140625 C 13.34375 -16.910156 13.976562 -16.59375 14.46875 -16.1875 C 14.96875 -15.789062 15.335938 -15.3125 15.578125 -14.75 C 15.816406 -14.1875 15.9375 -13.578125 15.9375 -12.921875 L 15.9375 -12.34375 C 15.9375 -11.375 15.679688 -10.539062 15.171875 -9.84375 C 14.660156 -9.15625 13.734375 -8.691406 12.390625 -8.453125 C 13.054688 -8.398438 13.609375 -8.265625 14.046875 -8.046875 C 14.492188 -7.828125 14.847656 -7.554688 15.109375 -7.234375 C 15.378906 -6.921875 15.570312 -6.554688 15.6875 -6.140625 C 15.800781 -5.734375 15.859375 -5.3125 15.859375 -4.875 L 15.875 -2.828125 C 15.875 -2.390625 15.941406 -2.03125 16.078125 -1.75 C 16.222656 -1.476562 16.484375 -1.226562 16.859375 -1 L 16.859375 0.109375 Z M 12.859375 -12.734375 C 12.859375 -13.023438 12.8125 -13.300781 12.71875 -13.5625 C 12.625 -13.832031 12.460938 -14.066406 12.234375 -14.265625 C 12.003906 -14.460938 11.703125 -14.625 11.328125 -14.75 C 10.960938 -14.875 10.519531 -14.9375 10 -14.9375 L 5.09375 -14.9375 L 5.09375 -9.53125 L 10 -9.53125 C 10.957031 -9.53125 11.671875 -9.75 12.140625 -10.1875 C 12.617188 -10.625 12.859375 -11.207031 12.859375 -11.9375 Z M 12.859375 -12.734375 "/></g></g></g><g fill="#1775bb" fill-opacity="1"><g transform="translate(239.549929, 205.177794)"><g><path d="M 18.84375 0 L 18.84375 -13.578125 L 17.984375 -11.34375 L 12.9375 0 L 10.765625 0 L 5.78125 -11.34375 L 4.90625 -13.578125 L 4.90625 0 L 2.078125 0 L 2.078125 -17.484375 L 6.28125 -17.484375 L 11.125 -5.984375 L 11.9375 -3.828125 L 12.75 -5.953125 L 17.5625 -17.484375 L 21.734375 -17.484375 L 21.734375 0 Z M 18.84375 0 "/></g></g></g><g fill="#1775bb" fill-opacity="1"><g transform="translate(265.354489, 205.177794)"><g><path d="M 14.125 0 L 12.421875 -4.40625 L 5.046875 -4.40625 L 3.390625 0 L 0.28125 0 L 7.328125 -17.484375 L 10.15625 -17.484375 L 17.296875 0 Z M 8.65625 -13.890625 L 5.9375 -6.765625 L 11.46875 -6.765625 Z M 8.65625 -13.890625 "/></g></g></g><g fill="#1775bb" fill-opacity="1"><g transform="translate(284.911537, 205.177794)"><g><path d="M 14.640625 0 L 6.453125 -10.390625 L 5.015625 -12.390625 L 5.015625 0 L 2.078125 0 L 2.078125 -17.484375 L 4.71875 -17.484375 L 12.671875 -7.015625 L 14.09375 -5.046875 L 14.09375 -17.484375 L 17.03125 -17.484375 L 17.03125 0 Z M 14.640625 0 "/></g></g></g><g fill="#1775bb" fill-opacity="1"><g transform="translate(306.017336, 205.177794)"><g><path d="M 2.078125 0 L 2.078125 -17.484375 L 14.71875 -17.484375 L 14.71875 -14.859375 L 5.09375 -14.859375 L 5.09375 -10.3125 L 12.34375 -10.3125 L 12.34375 -7.828125 L 5.09375 -7.828125 L 5.09375 -2.625 L 14.71875 -2.625 L 14.71875 0 Z M 2.078125 0 "/></g></g></g><g fill="#1775bb" fill-opacity="1"><g transform="translate(323.973138, 205.177794)"><g><path d="M 15.90625 -4.875 C 15.90625 -4.09375 15.726562 -3.367188 15.375 -2.703125 C 15.03125 -2.035156 14.535156 -1.460938 13.890625 -0.984375 C 13.253906 -0.503906 12.492188 -0.128906 11.609375 0.140625 C 10.734375 0.410156 9.757812 0.546875 8.6875 0.546875 C 7.144531 0.546875 5.753906 0.273438 4.515625 -0.265625 C 3.273438 -0.804688 2.050781 -1.566406 0.84375 -2.546875 L 2.78125 -4.71875 C 3.363281 -4.25 3.914062 -3.84375 4.4375 -3.5 C 4.957031 -3.164062 5.472656 -2.890625 5.984375 -2.671875 C 6.503906 -2.460938 7.03125 -2.3125 7.5625 -2.21875 C 8.101562 -2.125 8.679688 -2.078125 9.296875 -2.078125 C 10.503906 -2.078125 11.398438 -2.316406 11.984375 -2.796875 C 12.566406 -3.273438 12.859375 -3.882812 12.859375 -4.625 C 12.859375 -5.269531 12.578125 -5.773438 12.015625 -6.140625 C 11.460938 -6.503906 10.765625 -6.8125 9.921875 -7.0625 C 9.078125 -7.320312 8.164062 -7.566406 7.1875 -7.796875 C 6.207031 -8.023438 5.296875 -8.332031 4.453125 -8.71875 C 3.617188 -9.101562 2.921875 -9.609375 2.359375 -10.234375 C 1.796875 -10.867188 1.515625 -11.703125 1.515625 -12.734375 C 1.515625 -13.460938 1.675781 -14.148438 2 -14.796875 C 2.332031 -15.453125 2.804688 -16.019531 3.421875 -16.5 C 4.046875 -16.976562 4.800781 -17.351562 5.6875 -17.625 C 6.570312 -17.894531 7.5625 -18.03125 8.65625 -18.03125 C 10.300781 -18.03125 11.75 -17.722656 13 -17.109375 C 14.257812 -16.503906 15.253906 -15.664062 15.984375 -14.59375 L 13.890625 -12.84375 C 13.242188 -13.59375 12.472656 -14.207031 11.578125 -14.6875 C 10.679688 -15.164062 9.707031 -15.40625 8.65625 -15.40625 C 7.445312 -15.40625 6.457031 -15.191406 5.6875 -14.765625 C 4.925781 -14.335938 4.546875 -13.753906 4.546875 -13.015625 C 4.546875 -12.578125 4.707031 -12.207031 5.03125 -11.90625 C 5.351562 -11.613281 5.78125 -11.347656 6.3125 -11.109375 C 6.84375 -10.878906 7.445312 -10.671875 8.125 -10.484375 C 8.8125 -10.304688 9.507812 -10.109375 10.21875 -9.890625 C 10.925781 -9.671875 11.617188 -9.425781 12.296875 -9.15625 C 12.984375 -8.894531 13.59375 -8.570312 14.125 -8.1875 C 14.664062 -7.800781 15.097656 -7.34375 15.421875 -6.8125 C 15.742188 -6.28125 15.90625 -5.632812 15.90625 -4.875 Z M 15.90625 -4.875 "/></g></g></g><g fill="#1775bb" fill-opacity="1"><g transform="translate(343.031441, 205.177794)"><g><path d="M 9.875 -14.859375 L 9.875 0 L 6.84375 0 L 6.84375 -14.859375 L 0.890625 -14.859375 L 0.890625 -17.484375 L 15.828125 -17.484375 L 15.828125 -14.859375 Z M 9.875 -14.859375 "/></g></g></g></svg>