<?xml version="1.0" standalone="no"?>
<!DOCTYPE svg PUBLIC "-//W3C//DTD SVG 20010904//EN"
 "http://www.w3.org/TR/2001/REC-SVG-20010904/DTD/svg10.dtd">
<svg version="1.0" xmlns="http://www.w3.org/2000/svg"
 width="1472.000000pt" height="832.000000pt" viewBox="0 0 1472.000000 832.000000"
 preserveAspectRatio="xMidYMid meet">

<g transform="translate(0.000000,832.000000) scale(0.100000,-0.100000)"
fill="#000000" stroke="none">
<path d="M3644 5365 c-197 -35 -384 -113 -559 -230 -290 -195 -450 -454 -472
-761 -5 -74 -4 -87 13 -105 27 -30 75 -21 165 34 132 80 171 92 429 137 107
19 157 52 129 86 -15 19 -145 18 -269 -1 -98 -15 -193 -48 -261 -91 -22 -13
-53 -27 -70 -31 l-30 -6 16 39 c23 55 41 72 126 114 130 66 160 71 395 68 238
-2 265 3 421 78 51 24 105 47 120 50 21 4 58 -9 144 -51 143 -68 214 -83 454
-95 207 -11 243 -18 341 -66 78 -38 139 -94 149 -136 9 -37 0 -36 -85 7 -149
75 -316 115 -479 115 l-94 0 24 -26 c37 -40 83 -59 214 -89 135 -31 301 -92
387 -142 78 -46 110 -51 138 -23 21 21 22 28 16 121 -23 333 -120 530 -351
718 -124 100 -292 198 -322 187 -8 -3 -12 -2 -9 3 7 11 -128 56 -239 81 -101
22 -187 25 -233 9 -24 -8 -37 -7 -61 5 -35 19 -51 19 -147 1z m176 -114 c0 -9
171 -147 225 -182 22 -14 65 -37 95 -51 315 -150 308 -146 385 -222 41 -40 75
-78 75 -85 0 -24 -399 -4 -498 25 -51 14 -151 62 -244 117 l-37 21 -128 -62
c-172 -83 -229 -95 -450 -90 -95 2 -176 8 -180 12 -7 7 11 24 92 91 36 29 83
57 300 175 61 33 196 118 205 129 3 3 22 19 43 34 48 36 87 78 87 94 0 7 7 10
15 7 8 -4 15 -9 15 -13z m-190 -4 c0 -22 -89 -81 -220 -147 -69 -35 -163 -88
-209 -118 -85 -56 -211 -172 -269 -247 -29 -40 -125 -96 -138 -82 -9 9 31 83
88 159 120 163 331 311 569 398 128 48 179 58 179 37z m570 -37 c285 -101 488
-251 597 -441 31 -53 64 -147 54 -154 -14 -8 -101 38 -107 57 -20 64 -154 216
-244 277 -62 43 -194 110 -290 148 -116 47 -220 118 -220 151 0 22 87 6 210
-38z"/>
<path d="M3772 5080 c-12 -5 -59 -33 -104 -62 -46 -29 -130 -78 -188 -108 -69
-36 -106 -61 -109 -74 -3 -18 2 -19 66 -13 69 5 184 44 233 77 56 39 132 80
147 80 10 0 57 -25 105 -56 120 -76 195 -104 294 -111 46 -3 84 -2 87 4 12 19
-12 35 -108 74 -54 21 -144 68 -200 104 -144 92 -176 104 -223 85z"/>
<path d="M6155 4373 c4 -230 8 -419 9 -420 0 -1 24 -3 51 -4 l50 -3 5 196 c5
179 7 199 26 224 38 51 70 68 137 72 78 4 123 -17 154 -73 21 -37 23 -52 23
-227 l0 -188 56 0 55 0 -3 213 c-3 198 -4 215 -26 255 -44 83 -149 131 -259
118 -60 -7 -95 -22 -142 -62 l-31 -26 0 171 0 171 -56 0 -56 0 7 -417z"/>
<path d="M3738 4615 c-26 -14 -107 -64 -180 -111 -175 -113 -230 -137 -394
-180 -264 -67 -328 -92 -454 -177 -66 -45 -173 -158 -195 -206 -18 -42 -18
-42 2 -63 28 -28 56 -17 93 37 85 124 280 246 455 286 195 45 245 58 311 85
80 31 214 109 295 170 31 24 72 51 92 60 47 22 66 14 215 -93 162 -116 281
-172 492 -233 190 -56 232 -72 312 -124 55 -35 159 -137 196 -192 27 -40 57
-49 83 -23 10 10 19 23 19 27 0 20 -81 131 -131 180 -64 62 -139 113 -152 105
-6 -3 -7 -1 -4 4 12 19 -135 75 -323 124 -86 23 -227 79 -288 115 -18 10 -90
59 -160 107 -137 96 -191 127 -219 127 -10 0 -39 -11 -65 -25z m799 -361 c-3
-3 -12 -4 -19 -1 -8 3 -5 6 6 6 11 1 17 -2 13 -5z"/>
<path d="M11909 4623 c0 -4 -1 -28 -2 -53 l-2 -45 -45 -3 c-49 -4 -60 -13 -60
-54 0 -27 2 -28 55 -28 l55 0 0 -182 c0 -201 10 -243 64 -286 34 -27 119 -37
175 -22 37 10 42 14 37 33 -3 12 -6 30 -6 39 0 15 -9 17 -60 15 -50 -2 -63 2
-82 21 -22 22 -23 28 -23 204 l0 181 88 -2 87 -2 0 40 0 40 -87 3 -88 3 -1 50
-1 50 -51 3 c-29 2 -52 -1 -53 -5z"/>
<path d="M5671 4525 c-24 -7 -61 -28 -82 -45 l-39 -31 0 36 0 35 -55 0 -55 0
0 -395 0 -395 55 0 55 0 0 157 0 157 38 -37 c46 -45 107 -67 186 -67 81 0 145
22 199 70 64 57 90 123 91 230 1 78 -2 90 -33 147 -67 125 -217 182 -360 138z
m206 -121 c112 -89 110 -259 -4 -338 -36 -25 -51 -29 -110 -29 -79 -1 -117 15
-161 68 -89 108 -61 260 58 315 69 32 166 25 217 -16z"/>
<path d="M6999 4530 c-67 -11 -149 -49 -149 -69 0 -9 8 -26 18 -38 l17 -23 53
20 c34 13 76 20 122 20 65 0 73 -2 106 -33 26 -24 37 -43 41 -75 l6 -42 -120
0 c-126 0 -163 -8 -216 -50 -38 -30 -57 -71 -57 -125 0 -72 34 -122 109 -160
27 -14 52 -16 115 -13 77 5 156 30 156 50 0 4 5 8 10 8 6 0 10 -11 10 -25 0
-21 5 -25 28 -25 15 0 37 -3 50 -6 l22 -6 0 218 c0 252 -7 280 -80 333 -62 45
-139 58 -241 41z m211 -362 c-1 -83 -51 -130 -145 -136 -74 -5 -116 13 -135
58 -10 24 -10 36 0 60 20 48 51 59 173 60 l107 0 0 -42z"/>
<path d="M7687 4529 c-49 -12 -87 -32 -111 -58 -27 -29 -33 -26 -28 14 l4 35
-56 0 -56 0 0 -127 c0 -71 3 -199 7 -285 l6 -158 51 0 51 0 0 178 c0 175 0
178 27 223 32 55 81 79 159 79 l50 0 -3 53 c-3 50 -4 52 -33 54 -16 1 -47 -3
-68 -8z"/>
<path d="M8100 4525 c-25 -8 -65 -31 -88 -50 l-42 -37 0 40 0 40 -46 4 c-25 2
-47 1 -50 -1 -2 -2 -4 -133 -4 -290 l0 -286 51 0 51 0 4 175 c5 154 8 180 27
220 28 58 87 90 164 90 57 0 56 -2 56 75 0 8 -1 20 -2 25 -2 14 -68 11 -121
-5z"/>
<path d="M8555 4531 c-39 -10 -88 -36 -104 -55 -21 -25 -34 -19 -29 14 l5 30
-54 0 -53 0 0 -284 0 -283 38 -7 c76 -12 70 -27 74 187 3 170 5 196 23 226 31
53 67 74 132 79 48 3 64 0 93 -20 63 -42 70 -69 70 -280 l0 -188 54 0 55 0 3
188 c2 155 6 193 21 222 30 59 61 75 145 75 73 0 74 0 112 -41 33 -36 39 -49
45 -105 3 -35 5 -126 3 -201 l-3 -136 53 -4 c30 -2 55 -1 56 2 1 3 2 97 2 210
-1 200 -2 207 -27 255 -34 66 -87 103 -171 117 -94 17 -166 -1 -224 -54 l-43
-40 -43 36 c-64 55 -152 76 -233 57z"/>
<path d="M9547 4525 c-66 -17 -117 -41 -117 -56 0 -12 29 -69 35 -69 2 0 28 9
57 21 63 25 160 29 203 8 31 -14 78 -91 73 -118 -2 -12 -27 -15 -123 -16 -106
-1 -126 -4 -176 -27 -72 -33 -102 -78 -102 -153 0 -107 66 -166 193 -173 87
-5 135 7 180 45 l30 25 0 -31 c0 -31 0 -31 53 -31 l52 0 0 213 c0 150 -4 221
-13 242 -18 41 -59 83 -104 106 -51 26 -166 33 -241 14z m243 -352 c0 -81 -68
-143 -157 -143 -64 0 -100 16 -119 51 -18 36 -18 59 2 87 24 35 48 41 167 41
l107 1 0 -37z"/>
<path d="M10248 4520 c-36 -11 -98 -49 -98 -61 0 -5 -4 -9 -10 -9 -5 0 -10 16
-10 35 l0 35 -50 0 -50 0 0 -285 0 -285 53 0 52 0 0 183 c0 176 1 184 25 226
34 60 75 83 150 83 72 0 115 -22 141 -72 17 -30 19 -59 19 -227 l0 -193 56 0
56 0 -4 208 c-4 224 -10 249 -63 306 -43 44 -101 66 -175 65 -36 0 -77 -4 -92
-9z"/>
<path d="M10869 4517 c-82 -31 -131 -74 -175 -157 -28 -53 -26 -190 3 -250 30
-62 97 -124 158 -146 77 -29 188 -25 257 9 30 15 62 35 71 45 16 18 15 20 -12
45 -29 26 -30 26 -54 7 -40 -32 -108 -44 -177 -32 -89 16 -154 71 -162 136
l-3 27 239 -1 239 -1 -6 63 c-9 92 -23 129 -63 176 -53 62 -103 85 -199 89
-51 2 -93 -2 -116 -10z m196 -91 c35 -23 74 -78 81 -114 l7 -32 -186 0 c-102
0 -188 4 -191 8 -8 13 26 73 60 107 17 17 46 36 65 43 43 14 134 8 164 -12z"/>
<path d="M11465 4521 c-109 -27 -164 -108 -135 -198 23 -72 69 -102 195 -128
92 -19 122 -35 131 -71 8 -31 -21 -75 -57 -85 -65 -19 -157 -6 -250 35 -23 10
-47 -57 -29 -79 22 -26 120 -49 207 -48 68 0 91 5 135 27 65 32 90 65 96 126
9 95 -34 136 -192 178 -120 33 -148 52 -144 96 5 47 47 71 123 70 66 -2 135
-19 147 -38 9 -14 21 -1 38 42 11 29 11 34 -6 47 -40 30 -183 44 -259 26z"/>
<path d="M3709 4361 c-30 -16 -107 -61 -172 -99 -146 -87 -215 -114 -389 -151
-135 -29 -258 -76 -316 -121 -145 -113 -233 -256 -256 -417 -8 -59 0 -72 62
-100 98 -43 207 -64 362 -70 170 -7 304 12 440 59 87 31 117 45 254 117 87 46
132 51 175 19 13 -10 27 -18 31 -18 5 0 40 -18 79 -41 40 -23 78 -38 87 -35 8
3 13 2 10 -2 -6 -11 131 -55 244 -79 128 -27 385 -25 503 5 89 22 146 46 159
66 23 35 -1 155 -51 254 -37 73 -50 91 -114 154 -98 97 -198 146 -417 203
-135 36 -243 86 -376 174 -185 125 -219 133 -315 82z m182 -112 c35 -23 95
-62 133 -87 85 -55 193 -105 213 -98 8 3 12 2 9 -3 -3 -5 22 -16 57 -25 269
-74 378 -126 468 -223 75 -81 133 -222 105 -257 -15 -20 -117 -45 -234 -56
-220 -21 -445 32 -679 160 -143 78 -168 82 -253 35 -237 -130 -373 -178 -549
-197 -157 -16 -390 13 -459 58 -21 14 -23 21 -17 57 10 59 61 151 120 215 89
98 199 154 365 187 107 21 232 61 290 93 25 14 61 34 80 45 19 11 47 28 61 37
70 50 167 100 195 100 19 0 55 -15 95 -41z"/>
<path d="M3717 4151 c-31 -16 -81 -45 -110 -64 -28 -18 -70 -45 -92 -59 -75
-47 -180 -87 -325 -123 -161 -40 -208 -59 -281 -117 -52 -41 -109 -119 -109
-149 0 -22 31 -29 160 -38 245 -17 455 35 662 161 46 28 103 60 127 70 42 19
45 19 90 3 25 -10 71 -33 102 -51 104 -62 300 -145 375 -158 16 -3 44 -10 63
-16 89 -25 335 -20 363 8 19 19 -7 69 -71 132 -80 78 -135 109 -267 150 -206
65 -282 99 -449 202 -140 85 -161 90 -238 49z m109 -84 c31 -13 86 -47 94 -58
3 -4 59 -34 125 -67 117 -59 183 -84 355 -137 63 -19 96 -36 128 -65 23 -21
42 -41 42 -44 0 -12 -88 -5 -171 13 -111 25 -262 81 -369 138 -47 25 -89 49
-95 53 -5 4 -37 17 -70 29 -79 30 -106 23 -235 -53 -177 -105 -264 -140 -393
-161 -126 -20 -259 -24 -264 -8 -9 26 87 71 206 98 64 15 139 34 166 42 68 21
231 103 318 159 56 37 112 67 133 74 1 0 15 -6 30 -13z"/>
<path d="M8270 3677 c-14 -7 -31 -25 -38 -40 -11 -23 -11 -32 2 -58 14 -29 14
-32 -4 -48 -32 -27 -35 -64 -7 -97 21 -24 33 -29 71 -29 29 0 51 6 62 17 17
16 19 16 51 -3 45 -28 62 -15 28 21 -22 23 -25 31 -16 48 6 11 8 28 5 36 -9
23 -34 20 -34 -3 0 -32 -20 -35 -48 -8 l-25 26 31 29 c45 42 43 85 -5 111 -28
14 -42 14 -73 -2z m70 -57 c0 -10 -10 -26 -22 -34 -20 -14 -24 -14 -40 1 -24
21 -23 39 4 57 26 18 58 5 58 -24z m-25 -136 c15 -19 24 -38 21 -41 -14 -14
-69 -6 -82 12 -18 24 -17 30 2 49 22 23 28 20 59 -20z"/>
<path d="M6692 3632 c-19 -17 -102 -187 -102 -210 0 -24 30 -11 45 18 15 28
19 30 75 30 56 0 60 -2 75 -30 15 -30 45 -41 45 -17 0 17 -96 213 -108 221 -5
3 -19 -2 -30 -12z m39 -73 c24 -49 16 -64 -30 -54 -17 4 -31 8 -31 11 0 8 32
84 36 84 2 0 13 -19 25 -41z"/>
<path d="M7457 3644 c-4 -4 -7 -58 -7 -121 0 -106 1 -113 20 -113 17 0 20 7
20 50 l0 50 65 0 65 0 0 -51 c0 -43 3 -50 18 -47 15 3 17 18 20 116 3 107 2
112 -18 112 -17 0 -20 -6 -20 -45 l0 -45 -64 0 -65 0 -3 47 c-3 44 -15 62 -31
47z"/>
<path d="M8913 3635 c-83 -36 -95 -160 -19 -206 54 -33 156 -19 164 24 4 21
-15 22 -56 2 -38 -20 -76 -11 -102 22 -34 43 -19 103 31 124 27 11 45 10 97
-6 38 -12 27 24 -13 41 -42 17 -61 17 -102 -1z"/>
<path d="M11340 3642 c-38 -6 -60 -31 -60 -69 0 -28 5 -36 33 -48 17 -7 44
-16 60 -20 18 -4 27 -12 27 -25 0 -40 -63 -48 -98 -14 -15 16 -32 10 -32 -11
0 -23 42 -45 86 -45 108 0 121 117 15 135 -52 9 -73 32 -46 51 24 18 54 18 74
0 24 -22 45 -6 26 21 -15 22 -45 31 -85 25z"/>
<path d="M5521 3627 c-17 -21 -91 -185 -91 -202 0 -26 28 -16 42 15 12 28 16
30 70 30 53 0 58 -2 75 -30 18 -32 43 -40 43 -15 0 8 -21 60 -46 115 -47 101
-66 119 -93 87z m54 -117 c-8 -13 -65 -13 -65 0 0 6 7 27 16 48 l16 37 19 -38
c11 -21 17 -42 14 -47z"/>
<path d="M6036 3609 c-8 -40 -8 -162 0 -183 3 -9 12 -16 20 -16 10 0 14 14 14
50 l0 50 65 0 c55 0 65 -3 66 -17 1 -10 2 -22 4 -28 1 -5 3 -20 3 -32 1 -13 9
-23 17 -23 12 0 15 19 15 115 0 93 -3 115 -14 115 -10 0 -17 -16 -22 -45 l-6
-45 -64 0 -64 0 0 45 c0 53 -24 63 -34 14z"/>
<path d="M6360 3525 l0 -115 69 0 c39 0 73 5 76 11 10 16 4 18 -55 21 -54 4
-55 4 -58 36 l-3 32 50 0 c44 0 51 3 51 20 0 17 -7 20 -50 20 -49 0 -50 1 -50
30 0 30 1 30 55 30 42 0 55 3 55 15 0 12 -14 15 -70 15 l-70 0 0 -115z"/>
<path d="M6937 3633 c-7 -13 -8 -169 -1 -197 6 -24 10 -26 64 -26 55 0 82 12
65 28 -4 4 -25 7 -48 8 l-42 0 -3 97 c-2 75 -6 97 -17 97 -7 0 -16 -3 -18 -7z"/>
<path d="M7147 3634 c-13 -13 5 -24 39 -24 l34 0 0 -84 c0 -93 5 -116 26 -116
11 0 14 21 14 100 l0 100 40 0 c29 0 40 4 40 15 0 12 -17 15 -93 15 -52 0 -97
-3 -100 -6z"/>
<path d="M9197 3542 c-26 -55 -47 -107 -47 -116 0 -26 24 -18 43 14 17 28 22
30 76 30 56 0 59 -2 71 -30 14 -33 40 -41 40 -11 0 10 -21 61 -47 112 -66 129
-76 129 -136 1z m88 18 c24 -47 20 -61 -17 -55 -18 4 -34 8 -36 9 -4 5 26 76
32 76 3 0 12 -13 21 -30z"/>
<path d="M9492 3528 c2 -93 6 -113 18 -113 10 0 16 13 18 43 3 38 5 42 30 42
21 -1 33 -10 54 -45 15 -25 34 -45 43 -45 20 0 19 16 -6 56 l-20 33 20 20 c27
27 27 61 0 95 -19 24 -27 26 -90 26 l-70 0 3 -112z m132 60 c18 -29 -4 -53
-53 -56 l-41 -3 0 41 0 41 41 -3 c27 -2 46 -9 53 -20z"/>
<path d="M9792 3528 l3 -113 68 -3 c62 -3 68 -1 65 15 -2 14 -15 19 -56 21
-50 3 -52 4 -52 33 0 28 1 29 50 29 43 0 50 3 50 20 0 17 -7 20 -51 20 -49 0
-50 1 -47 28 3 25 7 27 56 30 37 2 52 7 52 18 0 11 -16 14 -70 14 l-71 0 3
-112z"/>
<path d="M10284 3623 c60 -198 66 -213 96 -213 13 0 23 19 39 73 13 39 24 77
26 82 3 11 5 7 35 -87 19 -58 25 -68 45 -68 20 0 27 11 53 83 16 45 33 97 37
115 6 27 4 32 -13 32 -15 0 -24 -15 -41 -72 -33 -111 -36 -112 -65 -14 -24 77
-30 87 -48 84 -18 -2 -26 -17 -42 -80 -12 -42 -24 -79 -27 -82 -3 -3 -17 33
-33 79 -22 69 -31 85 -47 85 -15 0 -19 -5 -15 -17z"/>
<path d="M10736 3594 c-10 -74 -7 -159 6 -172 7 -7 39 -12 76 -12 55 0 63 2
60 18 -3 16 -10 18 -85 21 -19 1 -23 7 -23 31 0 29 1 30 49 30 33 0 51 5 54
14 8 21 -2 26 -55 26 -48 0 -49 1 -46 28 3 25 7 27 56 30 37 2 52 7 52 18 0
11 -15 14 -69 14 l-68 0 -7 -46z"/>
<path d="M10994 3627 c-2 -7 -3 -58 -2 -113 l3 -99 62 -3 c56 -3 66 0 88 22
28 28 32 62 10 86 -12 13 -13 22 -3 48 10 27 9 34 -7 51 -15 17 -30 21 -82 21
-43 0 -65 -4 -69 -13z m121 -47 c0 -22 -5 -25 -42 -28 -42 -3 -43 -2 -43 28 0
30 1 31 43 28 37 -3 42 -6 42 -28z m5 -79 c19 -37 -7 -60 -67 -61 -20 0 -23 5
-23 40 0 40 0 40 40 40 29 0 42 -5 50 -19z"/>
<path d="M11566 3618 c-8 -30 -8 -172 0 -192 3 -9 12 -16 20 -16 11 0 14 23
14 115 0 91 -3 115 -14 115 -7 0 -16 -10 -20 -22z"/>
<path d="M11720 3625 c0 -11 11 -15 40 -15 l40 0 0 -100 c0 -93 1 -100 20
-100 19 0 20 7 20 99 l0 100 43 3 c82 6 42 23 -60 26 -87 2 -103 0 -103 -13z"/>
<path d="M12034 3627 c-2 -7 -3 -58 -2 -113 l3 -99 73 -3 c66 -3 73 -1 70 15
-2 14 -15 19 -56 21 -50 3 -52 4 -52 32 0 27 2 29 48 32 34 2 47 7 47 18 0 11
-13 16 -47 18 -46 3 -48 5 -48 33 0 29 1 29 55 29 42 0 55 3 55 15 0 20 -138
22 -146 2z"/>
<path d="M3640 3434 c-224 -97 -483 -151 -661 -138 -94 6 -97 6 -104 -15 -11
-35 16 -63 101 -105 44 -21 91 -44 106 -52 37 -20 130 -47 295 -88 141 -34
284 -81 355 -117 21 -11 46 -19 57 -19 11 0 69 20 129 44 60 25 167 58 238 75
247 59 290 73 404 127 151 73 183 102 143 135 -11 10 -51 14 -137 15 -126 2
-307 25 -379 48 -23 8 -55 17 -72 21 -16 3 -91 31 -166 61 -76 30 -152 54
-170 54 -19 0 -81 -21 -139 -46z m260 -89 c146 -64 339 -115 480 -127 35 -3
50 -28 20 -34 -8 -2 -33 -8 -55 -13 -95 -25 -241 -6 -400 49 -156 55 -141 55
-310 -3 -149 -51 -151 -51 -275 -52 -102 0 -131 3 -158 18 -18 10 -30 22 -28
26 3 5 35 11 71 15 96 10 277 58 380 101 176 74 155 73 275 20z m-4 -210 c57
-19 114 -35 126 -35 33 0 9 -15 -47 -30 -27 -7 -79 -27 -115 -43 -58 -26 -68
-28 -95 -17 -16 7 -67 26 -112 43 -46 17 -83 34 -83 37 0 3 26 13 58 23 31 10
80 27 107 37 28 11 51 19 53 20 2 0 50 -16 108 -35z"/>
</g>
</svg>
